<svg transform="scale(1)" version="1.1" id="aQZOcgQDxv" xmlns="http://www.w3.org/2000/svg" xmlns:xlink="http://www.w3.org/1999/xlink" x="0px" y="0px" viewBox="0 0 500 500" xml:space="preserve" class="pbimage_pbimage__wrapper__image__0LEis false"><title>Getting Started 3</title><style type="text/css"> .st0{fill:#A04040;} .st1{fill:#3299F5;} .st2{fill:#000001;} .st3{fill:#EA8383;} .st4{fill:#F2EBEB;}
 .st4{fill:#F2EBEB;}
 .st3{fill:#EA8383;}
 .st2{fill:#000001;}
 .st1{fill:#3299F5;}
 .st0{fill:#A04040;}</style><g id="character-2"><path class="st0" d="M105.1,260c0,0,3.5-108.3,10.2-120.5s30.4-5.8,30.4-5.8l-29.3,136.7C116.4,270.4,104.7,270.9,105.1,260z" fill="#A04040"></path><path class="st1" d="M202.9,197L146,225l-35.9-43.6c0,0,72.2-15.7,82.5-12.6S202.9,197,202.9,197z" fill="#3299F5"></path><path class="st2" d="M176.2,176.8c0,0,65.5-13.7,63-28.3s-90.4-42.3-118.8-35.3c0,0-12.9,27.5-7.9,35.6S155.4,182,176.2,176.8z" fill="#000001"></path><polygon class="st3" points="127.9,142.4 109.9,144.6 111.5,125.9 124.2,124 	" fill="#EA8383"></polygon><path class="st3" d="M83,105.8c0,0-2.4,28.9,8,48.2c2.2,4.2,25.9-6.7,28.8-16c0.5-1.6-2.9-9.3-2.9-9.3l-5-23.2L83,105.8z" fill="#EA8383"></path><path class="st0" d="M109.4,129.9c0,0,4.8,0.2,7.8-5.1c7.4-13.4,1.8-32-2.8-31.7c-5.9,0.4-23.4,4.8-22.9,4.7c0,0,2.6-5,0-5.9
		s-11.7,5.1-12.7,8.4s1.6,11.7,3.9,11.9s17.8-5.4,17.8-5.4s1.6,8,8.9,10.8C110,117.8,109.4,129.9,109.4,129.9z" fill="#A04040"></path><path class="st4" d="M97.4,121.6c0,0-6.2-2.2-8.3,3c-0.2,0.4,0,0.8,0.4,1c0,0,0,0,0.1,0C91.5,126.1,96.2,126.6,97.4,121.6z" fill="#F2EBEB"></path><path class="st2" d="M97.8,121.6c-0.9-0.1-1.8-0.1-2.7,0c-0.8,0-1.7,0.2-2.5,0.4c-1.6,0.5-3,1.7-3.7,3.3c0-1,0.4-1.9,1-2.6
		c0.6-0.8,1.4-1.3,2.4-1.6c0.9-0.3,1.9-0.4,2.8-0.3C96,120.8,96.9,121.1,97.8,121.6z" fill="#000001"></path><path class="st2" d="M91.5,121.8c0,0,1.8,0.5,1.1,4c0,0-4.1,0.4-3.7-0.8C89,125,90.1,121.9,91.5,121.8z" fill="#000001"></path><path class="st2" d="M100.7,129.8c0.6,0.3,0.9,0.9,1,1.6c0.1,0.7-0.1,1.4-0.6,1.9c-0.4,0.5-0.9,0.8-1.6,1c-0.3,0.1-0.6,0.1-0.9,0.1
		c-0.3,0-0.6-0.1-0.9-0.2c0.2-0.2,0.3-0.5,0.5-0.7c0.2-0.2,0.3-0.4,0.5-0.6c0.3-0.3,0.5-0.6,0.7-0.9
		C100.1,131.4,100.4,130.6,100.7,129.8z" fill="#000001"></path><path class="st3" d="M83.8,122.3c0,0-7,9.4-4.8,12s8.5,2,8.5,2L83.8,122.3z" fill="#EA8383"></path><path class="st3" d="M116.3,127.7c0,0,7.9-4.8,4.4-11.9s-8.5,8.5-8.5,8.5L116.3,127.7z" fill="#EA8383"></path><path class="st2" d="M89.2,118.6c0.2-0.7,0.6-1.3,1.2-1.8c0.6-0.5,1.2-0.8,1.9-1c1.4-0.4,2.9-0.2,4.1,0.6c-0.6,0.3-1.2,0.6-1.9,0.8
		c-0.6,0.2-1.1,0.4-1.7,0.5s-1.1,0.3-1.7,0.4S90,118.5,89.2,118.6z" fill="#000001"></path><path class="st1" d="M81.2,109.8c0,0,34.3,1.2,39.9-7c0,0,2.3,5.2-0.1,7.1s-35.8,7.4-39.6,4.4S81.2,109.8,81.2,109.8z" fill="#3299F5"></path><path class="st2" d="M99.7,153.4l5.6-3.3c1.8-1.1,3.7-2.2,5.4-3.4c1.8-1.2,3.4-2.4,5-3.9c1.6-1.4,3-3.1,4.1-4.9
		c-0.5,2.2-1.5,4.3-3,5.9c-1.5,1.7-3.1,3.2-5,4.4c-0.9,0.6-1.9,1.2-2.8,1.7s-2,1-3,1.4C104,152.4,101.9,153,99.7,153.4z" fill="#000001"></path><path class="st0" d="M105.1,260c0,0-8.6,22-13.5,26.3s-16.4,6.1-14.4,8.3s16.9-0.2,20.2-4c0,0,1.6,8.5,4.3,6.5s0.4-4.9,5.2-8.5
		s9.5-18.1,9.5-18.1L105.1,260z" fill="#A04040"></path><path class="st2" d="M97.8,282.1c0.3,3,0.6,5.9,1.1,8.7c0.2,1.4,0.6,2.7,1.1,4c0.2,0.5,0.6,0.9,1,1.2c0.1,0.1,0.3,0.1,0.5,0.1
		l0.3-0.1c0.1-0.1,0.2-0.1,0.2-0.1c0.3-0.4,0.6-0.9,0.7-1.4c0.1-0.6,0.2-1.4,0.3-2.1s0.2-1.5,0.3-2.3c0.1-0.4,0.2-0.8,0.3-1.2
		c0.2-0.4,0.3-0.7,0.5-1.1c1.4-2.6,2.7-5.1,3-8.1c0.3,1.5,0.2,3-0.1,4.5c-0.4,1.5-0.8,2.9-1.4,4.3c-0.3,0.6-0.5,1.2-0.6,1.9
		c-0.1,0.7-0.1,1.4-0.2,2.1c0,0.8-0.1,1.6-0.3,2.3c-0.1,0.9-0.6,1.8-1.2,2.5c-0.2,0.2-0.5,0.3-0.7,0.5c-0.3,0.1-0.5,0.2-0.8,0.2
		c-0.6,0.1-1.2,0-1.7-0.3c-0.8-0.5-1.4-1.3-1.8-2.2c-0.6-1.5-0.9-3-1-4.6C97.2,288.1,97.3,285.1,97.8,282.1z" fill="#000001"></path><path class="st3" d="M163.9,267c0,0,4.4,19.1,0.9,27.3s-8.7,13.5-12.6,15.2s-10.5,5.9-2.3,5.9s12.6-3.3,12.6-3.3
		s10.5,11.1,13.8,10.5s0-5,0-5s8.6,6.8,11.4,5s-2.6-6.8-2.6-6.8s9.6,5,6.9,1s-7-9.8-8.7-15.8s-7.6-30.8-7.6-30.8L163.9,267z" fill="#EA8383"></path><path class="st2" d="M159.8,307.2c1.2,1.2,2.3,2.5,3.4,3.8l3.3,3.8c1.1,1.2,2.2,2.5,3.3,3.6c1.2,1.2,2.4,2.3,3.8,3.2
		c-1.7-0.2-3.4-0.9-4.8-2c-1.4-1-2.7-2.2-3.8-3.5c-1.1-1.3-2.1-2.7-3-4.2C161,310.4,160.3,308.9,159.8,307.2z" fill="#000001"></path><path class="st2" d="M178.9,308.7c1.1,0.5,2.1,1.2,3,2c0.9,0.8,1.8,1.6,2.6,2.5c0.8,0.9,1.5,1.8,2.2,2.9c0.7,1,1.2,2.2,1.4,3.4
		l-2.6-2.4c-0.9-0.8-1.7-1.6-2.5-2.5c-0.8-0.9-1.5-1.8-2.2-2.7C180.1,310.8,179.4,309.8,178.9,308.7z" fill="#000001"></path><path class="st2" d="M171.8,307.8c0.9,0.9,1.7,1.9,2.4,3c0.7,1.1,1.3,2.2,1.9,3.3c0.5,1.2,1,2.4,1.3,3.6c0.2,0.6,0.3,1.3,0.4,1.9
		c0.1,0.7,0.1,1.3-0.1,2c-0.5-1.2-1.2-2.2-1.8-3.3s-1.2-2.2-1.7-3.3s-1-2.3-1.4-3.5C172.4,310.3,172.1,309,171.8,307.8z" fill="#000001"></path><path class="st3" d="M133.5,136.4c0,0,3.5-11.7,26.3-6.7c22.8,5,20.7,21.7,13.8,25.9l10,145.5l-20.5-3c0,0-3.4-58-10.9-85
		s-10.4-60-10.4-60S129.4,146.8,133.5,136.4z" fill="#EA8383"></path><path class="st2" d="M137.5,136.4c1.8,7,3.4,14.1,4.9,21.2c1.5,7.1,3,14.2,4.4,21.3s2.7,14.2,4,21.4s2.4,14.3,3.4,21.5
		c-1.8-7.1-3.4-14.1-4.9-21.2c-1.6-7.1-3-14.2-4.4-21.3s-2.7-14.2-3.9-21.4S138.6,143.6,137.5,136.4z" fill="#000001"></path><path class="st3" d="M188.2,229.2c0,0-3.9,51.1,7.8,59.4s96.9-26.3,96.9-26.3v-21.8l-67.6,11.2l2.7-25.1L188.2,229.2z" fill="#EA8383"></path><path class="st1" d="M276.6,292.4c0,0,28.6,0.1,29.9-4.8s2.3-53-1.3-53s-16.9,3.7-16.8,6.7s0.8,15.8-1.5,17s-9.8,6.1-9.1,10
		s13-1.2,13-1.2s0.7,10.2-1,12.3S273.6,285.4,276.6,292.4z" fill="#3299F5"></path><path class="st1" d="M235.9,149.8c0,0,7.7,4.2,6.8,29.2s-16.2,61.3-16.2,61.3l-42.9,3.9c0,0-4.1-62.4,0-69S235.9,149.8,235.9,149.8
		z" fill="#3299F5"></path><path class="st3" d="M139.4,290.4l16-2.9c0,0-5.4-106.4-44.1-106.3C84.1,181.2,113.4,247.6,139.4,290.4z" fill="#EA8383"></path><path class="st1" d="M155.7,283.8c0,0,6.6,21.1,3.4,22.5s-67.6,1.1-70.2,0s13-4.9,17.6-7.7s21.9-11.1,21.9-11.1s-1.8-13.9,0-12.4
		c1.8,1.5,15.1,11.5,20.1,11.6C151.1,286.8,153.8,285.8,155.7,283.8z" fill="#3299F5"></path></g><g id="line"><path class="st2" d="M147.3,344.9h-15.5l13.7,6.2h15.9L147.3,344.9z"></path><path class="st4" d="M133.2,338.7h-15.1l13.6,6.2h15.5L133.2,338.7z"></path><path class="st4" d="M188.3,363h-16.6l13.8,6.2h16.9L188.3,363z"></path><path class="st4" d="M161.4,351.1h-15.9l12.4,5.6h16.2L161.4,351.1z"></path><path class="st2" d="M174.1,356.8h-16.2l13.8,6.2h16.6L174.1,356.8z"></path><path class="st2" d="M119.1,332.4h-14.6l13.7,6.2h15.1L119.1,332.4z"></path><path class="st4" d="M43.8,299.1l-1.9,4.5l9,4.1h12.5L43.8,299.1z"></path><path class="st4" d="M77.5,314H64.4l13.5,6.2h13.6L77.5,314z"></path><path class="st2" d="M91.6,320.2H77.9l13.6,6.2h14.2L91.6,320.2z"></path><path class="st4" d="M105.7,326.5H91.6l12.9,5.9h14.6L105.7,326.5z"></path><path class="st2" d="M63.4,307.8H50.8l13.6,6.2h13.1L63.4,307.8z"></path><path class="st4" d="M272.1,400.1h-17.4c4.4,1.9,8.6,3.8,12.6,5.5h17.2L272.1,400.1z"></path><path class="st4" d="M298.6,411.9h-16.7c5.9,2.5,11,4.6,15.2,6.2h15.6L298.6,411.9z"></path><path class="st2" d="M284.5,405.6h-17.2c5.2,2.3,10.1,4.4,14.5,6.2h16.7L284.5,405.6z"></path><path class="st2" d="M297.1,418.1c6.5,2.6,10.7,4,11.9,4h12.8l-9.1-4H297.1z"></path><path class="st2" d="M202.3,369.2h-16.9l13.9,6.2h17.1L202.3,369.2z"></path><path class="st4" d="M216.4,375.5h-17.1l13.2,5.9h17.3L216.4,375.5z"></path><path class="st2" d="M229.8,381.4h-17.3l14,6.2h17.4L229.8,381.4z"></path><path class="st4" d="M243.9,387.7h-17.4l14,6.2H258L243.9,387.7z"></path><path class="st2" d="M258,393.9h-17.5c4.9,2.2,9.6,4.2,14.2,6.2h17.4L258,393.9z"></path><polygon class="st4" points="188.3,363 199.8,363 185.7,356.8 174.1,356.8 	"></polygon><polygon class="st4" points="216.4,375.5 227.9,375.5 213.8,369.2 202.3,369.2 	"></polygon><polygon class="st2" points="229.8,381.4 241.3,381.4 227.9,375.5 216.4,375.5 	"></polygon><polygon class="st2" points="202.3,369.2 213.8,369.2 199.8,363 188.3,363 	"></polygon><polygon class="st4" points="298.6,411.9 309.9,411.9 295.8,405.6 284.5,405.6 	"></polygon><polygon class="st2" points="312.7,418.1 324,418.1 309.9,411.9 298.6,411.9 	"></polygon><polygon class="st2" points="284.5,405.6 295.8,405.6 283.5,400.1 272.1,400.1 	"></polygon><polygon class="st2" points="258,393.9 269.4,393.9 255.4,387.7 243.9,387.7 	"></polygon><polygon class="st4" points="272.1,400.1 283.5,400.1 269.4,393.9 258,393.9 	"></polygon><polygon class="st4" points="243.9,387.7 255.4,387.7 241.3,381.4 229.8,381.4 	"></polygon><polygon class="st4" points="77.5,314 89.3,314 75.2,307.8 63.4,307.8 	"></polygon><polygon class="st2" points="91.6,320.2 103.3,320.2 89.3,314 77.5,314 	"></polygon><polygon class="st2" points="174.1,356.8 185.7,356.8 173,351.1 161.4,351.1 	"></polygon><path class="st4" d="M312.7,418.1l9.1,4H333l-9.1-4H312.7z"></path><polygon class="st2" points="75.2,307.8 45.6,294.6 43.8,299.1 63.4,307.8 	"></polygon><polygon class="st4" points="105.7,326.5 117.4,326.5 103.3,320.2 91.6,320.2 	"></polygon><polygon class="st2" points="119.1,332.4 130.8,332.4 117.4,326.5 105.7,326.5 	"></polygon><polygon class="st2" points="147.3,344.9 158.9,344.9 144.9,338.7 133.2,338.7 	"></polygon><polygon class="st4" points="161.4,351.1 173,351.1 158.9,344.9 147.3,344.9 	"></polygon><polygon class="st4" points="133.2,338.7 144.9,338.7 130.8,332.4 119.1,332.4 	"></polygon></g><g id="character-1"><path class="st0" d="M320.2,265c0,0-4.5,59,9,68.6S441,303.2,441,303.2V278l-71.3,6.5l2.2-22.9L320.2,265z"></path><path class="st1" d="M422.2,338c0,0,33,0.1,34.5-5.5s2.7-61.2-1.5-61.2s-19.5,4.3-19.4,7.7s1,18.2-1.7,19.6s-11.3,7-10.5,11.5
		s15.1-1.4,15.1-1.4s0.8,11.8-1.1,14.2S418.8,329.9,422.2,338z"></path><path class="st1" d="M375.2,173.4c0,0,8.9,4.9,7.9,33.7s-8.7,64.1-8.7,64.1l-59.6,11.1c0,0-4.7-72.1,0-79.6
		S375.2,173.4,375.2,173.4z"></path><path class="st4" d="M365.6,272.9c0.9-7.8,1.7-15.7,2.5-23.5s1.5-15.7,2-23.5s0.9-15.7,0.8-23.5c0-3.9-0.2-7.8-0.6-11.7
		c-0.3-3.9-1.1-7.8-2.3-11.5c1.6,3.6,2.7,7.5,3.3,11.4c0.6,3.9,1,7.9,1.2,11.8c0.3,7.9,0.2,15.8-0.4,23.7
		c-0.6,7.9-1.4,15.7-2.5,23.6S367.3,265.2,365.6,272.9z"></path><path class="st4" d="M358.9,184.2c2.3,7.3,3.8,14.9,4.5,22.6c0.8,7.7,1,15.4,0.6,23.1c-0.4,7.7-1.4,15.4-3,22.9
		c-0.7,3.8-1.8,7.5-2.8,11.2c-0.5,1.9-1.2,3.7-1.8,5.5s-1.2,3.6-1.9,5.4c0.8-3.8,2-7.4,2.7-11.2s1.6-7.5,2.2-11.3
		c0.3-1.9,0.6-3.8,0.9-5.6l0.7-5.7c0.3-1.9,0.4-3.8,0.5-5.7s0.4-3.8,0.4-5.7l0.2-5.7v-5.7c0-3.8-0.1-7.6-0.4-11.4
		C361.4,199.3,360.4,191.7,358.9,184.2z"></path><path class="st2" d="M214.5,315.4c0,0,13.8-139.8,21.6-153.9s35-6.7,35-6.7l-33.8,157.8C237.3,312.7,214.1,328,214.5,315.4z"></path><path class="st4" d="M306.4,204.6c0,0,75.6-15.8,72.7-32.6s-74.3-82.6-146.7-38.3c0,0-19.1,42.2-13.4,51.7S282.4,210.6,306.4,204.6
		z"></path><path class="st1" d="M337.2,227.9l-65.6,32.3l-41.4-70.4c0,0,85.3,6.5,97.2,10.1S337.2,227.9,337.2,227.9z"></path><path class="st2" d="M218,298.6c0,0-6.9,27-12.7,31.9s-15.6,7.5-13.2,10.1s19.5-0.3,23.4-4.7c0,0,1.8,9.9,4.9,7.5s0.5-5.7,6-9.9
		s11-20.9,11-20.9L218,298.6z"></path><path class="st2" d="M216,326.1c0,0-0.8,18.2,4.4,17.3c3.3-0.5,2-6.8,3.3-9.5s3.2-6.5,3-10.5"></path><path class="st0" d="M263.9,335.7l18.5-3.4c0,0,5-148.8-52.2-142.5C199,193.1,233.9,286.3,263.9,335.7z"></path><path class="st1" d="M282.7,328c0,0,7.7,24.3,3.9,26s-78,1.3-81,0s15-5.6,20.2-8.9s25.2-12.8,25.2-12.8s-2.1-16.1,0-14.3
		s17.5,13.3,23.1,13.4C277.4,331.6,280.5,330.3,282.7,328z"></path><path class="st0" d="M203,112.5c0,0-7.6,23.2-6.7,23.7s3.7-0.3,3.7-0.3s-3.8,16.2-0.3,38.3c0,0,23.8-1.7,35-11.4
		c0,0,1-57.5-3.8-59.4S203,112.5,203,112.5z"></path><path class="st2" d="M228.2,119.1c0,0-3.1,11.5-2,13.6s8.2-3.5,8.2-3.5s2.6-26.3,0-29.7s-56.9,14.6-52.5,16.8s21-3.8,21-3.8
		l17.1-0.7C220,111.8,223.5,117.8,228.2,119.1z"></path><path class="st0" d="M234,129.4c0,0,8.6-3.5,6.3-11.1s-9.9,7.1-9.9,7.1L234,129.4z"></path><path class="st4" d="M218,124.5c0,0-7.8-3.4-11,3.3c-0.2,0.5,0,1.1,0.5,1.3c0,0,0,0,0.1,0C209.9,129.8,215.9,130.8,218,124.5z"></path><path class="st2" d="M218.4,124.4c-2.2-0.2-4.4,0-6.6,0.4c-1,0.2-1.9,0.7-2.8,1.2c-0.9,0.7-1.7,1.5-2.4,2.4c0-1.3,0.4-2.6,1.3-3.5
		c0.9-1,2-1.7,3.3-2c1.2-0.3,2.6-0.3,3.8,0C216.3,123.2,217.4,123.7,218.4,124.4z"></path><path class="st2" d="M210.3,124.3c0,0,2.3,0.8,1.1,5.3c0,0-5.3,0.2-4.7-1.4C206.7,128.2,208.4,124.2,210.3,124.3z"></path><path class="st2" d="M216.8,136.1c0.4,0.5,0.5,1.2,0.3,1.8c-0.2,0.7-0.6,1.2-1.2,1.6c-0.6,0.3-1.2,0.5-1.8,0.4
		c-0.3,0-0.6-0.1-0.9-0.2c-0.3-0.1-0.5-0.3-0.8-0.5c0.2-0.2,0.5-0.3,0.8-0.4c0.2-0.1,0.4-0.2,0.6-0.3c0.4-0.2,0.7-0.4,1-0.6
		C215.6,137.4,216.2,136.8,216.8,136.1z"></path><path class="st2" d="M219.4,120.8c-2.2,0.1-4.1,0.1-6.1,0.1l-3-0.1c-1,0-2.1-0.1-3.1-0.2c1.8-1.2,4-1.8,6.1-1.7
		c1.1,0,2.2,0.2,3.2,0.5C217.5,119.6,218.5,120.1,219.4,120.8z"></path><path class="st0" d="M257.1,157.9c0,0,4.1-13.5,30.3-7.7s36.6,27.2,28.6,32l4.1,165.7l-29-3.4c0,0-3.9-66.9-12.6-98.1
		s-12-69.2-12-69.2S252.4,169.9,257.1,157.9z"></path><path class="st2" d="M261.8,157.9c2,8.1,3.9,16.3,5.6,24.5c1.8,8.2,3.4,16.4,5,24.6s3.1,16.4,4.6,24.7s2.8,16.5,4,24.8
		c-2-8.1-3.9-16.3-5.6-24.5c-1.8-8.2-3.4-16.4-5-24.6s-3.1-16.4-4.6-24.7S263,166.2,261.8,157.9z"></path><path class="st0" d="M292.1,308.7c0,0,5.1,22,1.1,31.5s-10,15.6-14.5,17.5s-12.1,6.8-2.6,6.8s14.6-3.8,14.6-3.8
		s12.1,12.8,15.9,12.1s0-5.7,0-5.7s9.9,7.9,13.2,5.7s-2.9-7.8-2.9-7.8s17.3,6.6,14.2,2.1s-9-12.2-10.9-19.2s-14.1-35.5-14.1-35.5
		L292.1,308.7z"></path><path class="st2" d="M287.4,355.1c1.4,1.5,2.6,2.9,3.9,4.4s2.5,2.9,3.7,4.4s2.5,2.9,3.9,4.2c1.3,1.4,2.8,2.6,4.5,3.6
		c-2-0.3-3.9-1.2-5.5-2.4c-1.6-1.2-3.1-2.5-4.4-4.1c-1.3-1.5-2.5-3.1-3.5-4.8C289,358.8,288.1,357,287.4,355.1z"></path><path class="st2" d="M309.5,356.8c1.2,0.7,2.4,1.5,3.4,2.4c1.1,0.9,2.1,1.8,3,2.9c0.9,1,1.8,2.1,2.5,3.3c0.8,1.2,1.4,2.5,1.7,3.8
		c-1-1-2-1.9-3-2.9s-1.9-1.9-2.8-2.9s-1.8-2-2.6-3.1C310.9,359.2,310.2,358,309.5,356.8z"></path><path class="st2" d="M301.4,355.7c1,1.1,1.9,2.3,2.7,3.5c0.8,1.2,1.5,2.5,2.1,3.9c0.6,1.3,1.2,2.7,1.6,4.1c0.2,0.7,0.4,1.4,0.5,2.2
		c0.2,0.7,0.2,1.5,0,2.3c-0.2-0.7-0.5-1.4-0.9-2c-0.3-0.6-0.7-1.3-1-1.9c-0.7-1.3-1.3-2.5-1.9-3.9s-1.2-2.6-1.7-4
		C302.1,358.6,301.7,357.2,301.4,355.7z"></path><path class="st4" d="M202.1,115.2c0,0,27.4,2,33.5-3.6v-3c0,0-29,2.7-32.6,3.9S202.1,115.2,202.1,115.2z"></path><path class="st1" d="M261.6,78.9c-0.2,1.3-0.7,2.5-1.5,3.6c-0.7,1.1-1.5,2.1-2.3,3c-0.8,0.9-1.7,1.8-2.7,2.6c-1,0.8-2,1.5-3.2,2.1
		c0.6-1.1,1.2-2.2,2-3.2c0.7-1,1.5-2,2.4-2.9s1.7-1.8,2.6-2.7S260.7,79.8,261.6,78.9z"></path><path class="st1" d="M271.1,91.2c-0.5,0.5-1.2,1-1.9,1.4c-0.7,0.4-1.3,0.7-2,1c-1.4,0.6-2.8,1.1-4.2,1.6c-1.4,0.4-2.9,0.8-4.4,1.1
		c-1.5,0.3-3,0.5-4.5,0.5c1.3-0.8,2.7-1.4,4.1-2c1.4-0.6,2.8-1.1,4.2-1.5s2.9-0.8,4.3-1.1c0.7-0.2,1.5-0.3,2.2-0.5
		C269.6,91.5,270.4,91.4,271.1,91.2z"></path><path class="st1" d="M256.3,103.4c0.7-0.4,1.4-0.8,2.2-1c0.7-0.2,1.5-0.3,2.3-0.4c0.8-0.1,1.5-0.1,2.3,0c0.8,0.1,1.6,0.3,2.4,0.6
		c-0.7,0.4-1.4,0.8-2.2,1c-1.5,0.4-3,0.5-4.6,0.3C257.9,103.9,257.1,103.7,256.3,103.4z"></path></g></svg>